<svg width="175" height="176" viewBox="0 0 175 176" fill="none" xmlns="http://www.w3.org/2000/svg">


<style>
  

    #rear-wheel{
        <!-- visibility: hidden; -->
        animation: wheels 2s infinite;
        transform-origin: center;
    }

    @keyframes wheels{
     	from {
		transform: rotate(0eg);
	}
	    to {
		transform: rotate(-360deg);
	}

    }

</style>



<g id="rear-wheel">
<path id="Vector" d="M87.5931 175.171C135.743 175.171 174.776 136.138 174.776 87.988C174.776 39.8382 135.743 0.805054 87.5931 0.805054C39.4432 0.805054 0.410034 39.8382 0.410034 87.988C0.410034 136.138 39.4432 175.171 87.5931 175.171Z" fill="#513025"/>
<path id="Vector_2" d="M87.5931 162.666C128.837 162.666 162.271 129.232 162.271 87.988C162.271 46.7445 128.837 13.3101 87.5931 13.3101C46.3496 13.3101 12.915 46.7445 12.915 87.988C12.915 129.232 46.3496 162.666 87.5931 162.666Z" fill="#351F19"/>
<path id="Vector_3" d="M87.5931 18.311C49.1121 18.311 17.915 49.5061 17.915 87.9891C17.915 126.47 49.1111 157.666 87.5931 157.666C126.075 157.666 157.271 126.471 157.271 87.9891C157.271 49.5061 126.074 18.311 87.5931 18.311ZM92.4841 40.3641C102.034 41.3341 110.75 45.115 117.802 50.86L92.4841 76.1771V40.3641ZM75.7831 83.0961H39.97C40.939 73.5471 44.7201 64.8301 50.4651 57.7791L75.7831 83.0961ZM57.3831 50.86C64.4361 45.115 73.1521 41.3341 82.701 40.3641V76.1771L57.3831 50.86ZM75.7831 92.8801L50.4651 118.197C44.7201 111.145 40.939 102.429 39.97 92.8801H75.7831ZM82.701 99.798V135.611C73.151 134.642 64.4351 130.861 57.3831 125.116L82.701 99.798ZM92.4841 99.798L117.802 125.116C110.749 130.861 102.033 134.642 92.4841 135.611V99.798ZM99.4031 92.8801H135.216C134.246 102.43 130.465 111.146 124.72 118.198L99.4031 92.8801ZM99.4031 83.0961L124.72 57.7791C130.465 64.8311 134.246 73.5481 135.216 83.0961H99.4031Z" fill="#E5DDCC"/>
<path id="Vector_4" d="M149.252 89.9391C149.252 55.8661 121.631 28.2451 87.558 28.2451C53.486 28.2451 25.8651 55.8661 25.8651 89.9391C25.8651 124.011 53.486 151.632 87.558 151.632C121.631 151.633 149.252 124.012 149.252 89.9391ZM50.4651 57.7781L75.7831 83.095H39.97C40.938 73.547 44.7201 64.8301 50.4651 57.7781ZM39.97 92.8801H75.7831L50.4651 118.197C44.7201 111.146 40.938 102.43 39.97 92.8801ZM82.701 135.611C73.151 134.642 64.4351 130.861 57.3831 125.116L82.701 99.798V135.611ZM82.701 76.178L57.3831 50.8611C64.4361 45.1161 73.1521 41.3351 82.701 40.3651V76.178ZM135.217 83.0961H99.4041L124.721 57.7791C130.466 64.8301 134.247 73.5471 135.217 83.0961ZM92.4841 40.3641C102.034 41.3341 110.75 45.115 117.802 50.86L92.4841 76.1771V40.3641ZM92.4841 135.611V99.798L117.802 125.116C110.75 130.861 102.034 134.643 92.4841 135.611ZM99.4031 92.8801H135.216C134.246 102.43 130.465 111.146 124.72 118.198L99.4031 92.8801Z" fill="#F2EADA"/>
<path id="Vector_5" d="M87.5931 101.395C94.9976 101.395 101 95.3925 101 87.988C101 80.5836 94.9976 74.5811 87.5931 74.5811C80.1886 74.5811 74.186 80.5836 74.186 87.988C74.186 95.3925 80.1886 101.395 87.5931 101.395Z" fill="#825043"/>
<path id="Vector_6" d="M87.5931 95.3251C91.6452 95.3251 94.9301 92.0401 94.9301 87.988C94.9301 83.9359 91.6452 80.6511 87.5931 80.6511C83.541 80.6511 80.256 83.9359 80.256 87.988C80.256 92.0401 83.541 95.3251 87.5931 95.3251Z" fill="#513025"/>
<path id="Vector_7" opacity="0.41" d="M0.854065 79.1401C30.1501 61.1191 90.227 34.766 168.736 56.04C155.99 23.695 124.465 0.805054 87.592 0.805054C42.43 0.805054 5.28906 35.1461 0.854065 79.1401Z" fill="#231F20"/>
<path id="Vector_8" opacity="0.15" d="M87.5931 157.665C125.148 157.665 155.748 127.95 157.2 90.751C149.168 94.709 141.388 97.824 133.881 100.217C132.12 106.893 128.957 112.998 124.721 118.198L111.918 105.395C107.629 106.047 103.448 106.481 99.3921 106.705L117.803 125.116C110.75 130.861 102.034 134.642 92.485 135.611V106.894C89.133 106.897 85.8721 106.763 82.7021 106.515V135.611C73.1521 134.642 64.436 130.861 57.384 125.116L76.613 105.887C72.525 105.362 68.6091 104.651 64.8691 103.794L50.4661 118.197C45.2281 111.767 41.63 103.952 40.3 95.3851C30.261 90.7291 22.7681 85.6401 18.1811 82.1241C18.0191 84.0591 17.9161 86.0111 17.9161 87.9871C17.9151 126.47 49.1111 157.665 87.5931 157.665Z" fill="#231F20"/>
<path id="Vector_9" opacity="0.15" d="M152.504 62.665C152.471 64.717 150.879 145.498 92.4841 143.889C25.9361 142.056 25.9901 90.7271 20.0551 70.8041C18.6601 76.3011 17.9141 82.0571 17.9141 87.9891C17.9141 126.47 49.11 157.666 87.592 157.666C126.074 157.666 157.27 126.471 157.27 87.9891C157.271 79.0511 155.569 70.517 152.504 62.665Z" fill="#231F20"/>
<path id="Vector_10" opacity="0.16" d="M92.485 89.9391C95.4674 89.9391 97.8851 87.5214 97.8851 84.5391C97.8851 81.5567 95.4674 79.139 92.485 79.139C89.5027 79.139 87.0851 81.5567 87.0851 84.5391C87.0851 87.5214 89.5027 89.9391 92.485 89.9391Z" fill="white"/>
</g>
</svg>
