<svg width="1400" height="980" viewBox="0 0 1400 980" fill="none" xmlns="http://www.w3.org/2000/svg">

<style>
  
    #car{
        animation: car 4s infinite ease-in-out;
    }

    #front-wheel{
        <!-- visibility: hidden; -->
        animation: wheels 0.3s infinite linear;
        transform-origin: center;
        transform-box: fill-box;
    }

    #rear-wheel{
        <!-- visibility: hidden; -->
        animation: wheels 0.3s infinite linear;
        transform-origin: center;
        transform-box: fill-box;
    }

    @keyframes wheels{
     	0% {
		transform: rotate(0deg);
	}
	    100% {
		transform: rotate(-360deg);
	}
    }

    @keyframes car{
        from{
            transform: translate(1920px, -50px);
        }
        to{
            transform: translate(-1920px, -20px);
         }
    }

    #dusts{
        animation: dusts 4s infinite
        ease;
    }

    @keyframes dusts{
        from{
            opacity: 1;
        }
        to{
            opacity: 0.1;
        }
    }
    
</style>

<g id="scene">
<g id="background">
<g id="sky">
<path id="Vector" d="M1405.63 -10.314H-5.62598V995.686H1405.63V-10.314Z" fill="#FCD698"/>
</g>
<g id="side-buildings">
<path id="Vector_2" d="M189.913 67.494H-17.68V332.229H189.913V67.494Z" fill="#AA6950"/>
<path id="Vector_3" d="M203.657 -45.0359H-31.138V43.155H203.657V-45.0359Z" fill="#B77355"/>
<path id="Vector_4" d="M203.657 -19.838H-31.138V43.156H203.657V-19.838Z" fill="#AA6950"/>
<path id="Vector_5" d="M26.129 -19.838V43.155" stroke="#844D40" stroke-miterlimit="10"/>
<path id="Vector_6" d="M56.481 -19.838V43.155" stroke="#844D40" stroke-miterlimit="10"/>
<path id="Vector_7" d="M86.833 -19.838V43.155" stroke="#844D40" stroke-miterlimit="10"/>
<path id="Vector_8" d="M117.184 -19.838V43.155" stroke="#844D40" stroke-miterlimit="10"/>
<path id="Vector_9" d="M147.536 -19.838V43.155" stroke="#844D40" stroke-miterlimit="10"/>
<path id="Vector_10" d="M177.887 -19.838V43.155" stroke="#844D40" stroke-miterlimit="10"/>
<path id="Vector_11" d="M221.696 43.155H-48.891V67.494H221.696V43.155Z" fill="#844D40"/>
<path id="Vector_12" d="M4.36801 67.494H-40.3V87.251H4.36801V67.494Z" fill="#B77355"/>
<path id="Vector_13" d="M212.247 67.494H167.579V87.251H212.247V67.494Z" fill="#B77355"/>
<path id="Vector_14" d="M203.658 87.251H176.742V332.068H203.658V87.251Z" fill="#CC835E"/>
<path id="Vector_15" d="M86.833 87.251C49.354 87.251 18.972 117.634 18.972 155.112V332.068H154.695V155.112C154.694 117.634 124.311 87.251 86.833 87.251Z" fill="#CC835E"/>
<path id="Vector_16" d="M86.833 100.833C56.471 100.833 31.856 125.447 31.856 155.809V332.229H141.809V155.81C141.809 125.447 117.195 100.833 86.833 100.833Z" fill="#B77355"/>
<path id="Vector_17" d="M95.995 111.876H79.388L75.952 77.373H99.431L95.995 111.876Z" fill="#844D40"/>
<path id="Vector_18" d="M31.856 151.676H12.528V171.004H31.856V151.676Z" fill="#844D40"/>
<path id="Vector_19" d="M160.493 151.676H141.165V171.004H160.493V151.676Z" fill="#844D40"/>
<path id="Vector_20" d="M128.065 171.004H45.6V332.23H128.065V171.004Z" fill="#844D40"/>
<path id="Vector_21" d="M189.913 463.496H-17.68V728.232H189.913V463.496Z" fill="#AA6950"/>
<path id="Vector_22" d="M213.966 332.068H-40.3V350.966H213.966V332.068Z" fill="#844D40"/>
<path id="Vector_23" d="M203.657 350.966H-31.138V439.157H203.657V350.966Z" fill="#B77355"/>
<path id="Vector_24" d="M203.657 376.164H-31.138V439.158H203.657V376.164Z" fill="#AA6950"/>
<path id="Vector_25" d="M26.129 376.164V439.157" stroke="#844D40" stroke-miterlimit="10"/>
<path id="Vector_26" d="M56.481 376.164V439.157" stroke="#844D40" stroke-miterlimit="10"/>
<path id="Vector_27" d="M86.833 376.164V439.157" stroke="#844D40" stroke-miterlimit="10"/>
<path id="Vector_28" d="M117.184 376.164V439.157" stroke="#844D40" stroke-miterlimit="10"/>
<path id="Vector_29" d="M147.536 376.164V439.157" stroke="#844D40" stroke-miterlimit="10"/>
<path id="Vector_30" d="M177.887 376.164V439.157" stroke="#844D40" stroke-miterlimit="10"/>
<path id="Vector_31" d="M221.696 439.157H-48.891V463.495H221.696V439.157Z" fill="#844D40"/>
<path id="Vector_32" d="M4.36801 463.496H-40.3V483.253H4.36801V463.496Z" fill="#B77355"/>
<path id="Vector_33" d="M212.247 463.496H167.579V483.253H212.247V463.496Z" fill="#B77355"/>
<path id="Vector_34" d="M203.658 483.253H176.742V728.069H203.658V483.253Z" fill="#CC835E"/>
<path id="Vector_35" d="M86.833 483.253C49.354 483.253 18.972 513.636 18.972 551.114V728.069H154.695V551.114C154.694 513.636 124.311 483.253 86.833 483.253Z" fill="#CC835E"/>
<path id="Vector_36" d="M86.833 496.835C56.471 496.835 31.856 521.449 31.856 551.812V728.232H141.809V551.812C141.809 521.449 117.195 496.835 86.833 496.835Z" fill="#B77355"/>
<path id="Vector_37" d="M95.995 507.878H79.388L75.952 473.374H99.431L95.995 507.878Z" fill="#844D40"/>
<path id="Vector_38" d="M31.856 547.678H12.528V567.006H31.856V547.678Z" fill="#844D40"/>
<path id="Vector_39" d="M160.493 547.678H141.165V567.006H160.493V547.678Z" fill="#844D40"/>
<path id="Vector_40" d="M128.065 567.006H45.6V728.232H128.065V567.006Z" fill="#844D40"/>
</g>
<g id="main-buildings">
<path id="Vector_41" d="M910.376 169.079H879.477V581.809H910.376V169.079Z" fill="#B77355"/>
<path id="Vector_42" d="M1013.01 169.079H982.107V581.809H1013.01V169.079Z" fill="#B77355"/>
<path id="Vector_43" d="M982.107 581.809H910.376V275.82C910.376 266.845 917.651 259.57 926.626 259.57H965.857C974.832 259.57 982.107 266.845 982.107 275.82V581.809Z" fill="#844D40"/>
<path id="Vector_44" d="M942.747 375.443H922.147V319.414C922.147 316.837 924.236 314.747 926.814 314.747H938.08C940.658 314.747 942.747 316.836 942.747 319.414V375.443Z" fill="#B77355"/>
<path id="Vector_45" d="M970.704 375.443H950.104V319.414C950.104 316.837 952.193 314.747 954.77 314.747H966.037C968.614 314.747 970.704 316.836 970.704 319.414V375.443V375.443Z" fill="#B77355"/>
<path id="Vector_46" d="M976.59 375.443H915.158V385.375H976.59V375.443Z" fill="#AA6950"/>
<path id="Vector_47" d="M1086.95 581.809H806.642V728.95H1086.95V581.809Z" fill="#AA6950"/>
<path id="Vector_48" d="M879.477 581.809H806.642V418.375C806.642 400.149 821.416 385.375 839.642 385.375H879.477V581.809Z" fill="#CC835E"/>
<path id="Vector_49" d="M1085.95 581.809H1013.11V385.375H1052.95C1071.17 385.375 1085.95 400.149 1085.95 418.375V581.809Z" fill="#CC835E"/>
<path id="Vector_50" d="M908.169 728.949H849.681V608.301C849.681 600.984 855.614 595.051 862.931 595.051H894.919C902.237 595.051 908.169 600.984 908.169 608.301V728.949V728.949Z" fill="#B77355"/>
<path id="Vector_51" d="M978.613 728.949H920.124V608.301C920.124 600.984 926.057 595.051 933.374 595.051H965.363C972.68 595.051 978.613 600.984 978.613 608.301V728.949Z" fill="#B77355"/>
<path id="Vector_52" d="M1049.06 728.949H990.569V608.301C990.569 600.984 996.501 595.051 1003.82 595.051H1035.81C1043.12 595.051 1049.06 600.984 1049.06 608.301V728.949Z" fill="#B77355"/>
<path id="Vector_53" d="M806.641 308.126H688.193V728.949H806.641V308.126Z" fill="#B77355"/>
<path id="Vector_54" d="M740.061 324.68H705.851V375.444H740.061V324.68Z" fill="#CC835E"/>
<path id="Vector_55" d="M786.962 324.68H752.752V375.444H786.962V324.68Z" fill="#CC835E"/>
<path id="Vector_56" d="M740.061 393.836H705.851V444.6H740.061V393.836Z" fill="#CC835E"/>
<path id="Vector_57" d="M786.962 393.836H752.752V444.6H786.962V393.836Z" fill="#CC835E"/>
<path id="Vector_58" d="M740.061 462.992H705.851V513.756H740.061V462.992Z" fill="#CC835E"/>
<path id="Vector_59" d="M786.962 462.992H752.752V513.756H786.962V462.992Z" fill="#CC835E"/>
<path id="Vector_60" d="M740.061 532.148H705.851V582.912H740.061V532.148Z" fill="#CC835E"/>
<path id="Vector_61" d="M786.962 532.148H752.752V582.912H786.962V532.148Z" fill="#CC835E"/>
<path id="Vector_62" d="M740.061 601.305H705.851V652.069H740.061V601.305Z" fill="#CC835E"/>
<path id="Vector_63" d="M786.962 601.305H752.752V652.069H786.962V601.305Z" fill="#CC835E"/>
<path id="Vector_64" d="M193.8 471.453H688.193V393.836H240.15L193.8 471.453Z" fill="#CC835E"/>
<path id="Vector_65" d="M688.193 471.453H204.1V728.949H688.193V471.453Z" fill="#AA6950"/>
<path id="Vector_66" d="M676.423 518.538H626.395V595.051H676.423V518.538Z" fill="#B77355"/>
<path id="Vector_67" d="M676.423 483.592H626.395V503.64H676.423V483.592Z" fill="#844D40"/>
<path id="Vector_68" d="M676.422 537.114H626.395" stroke="#844D40" stroke-miterlimit="10"/>
<path id="Vector_69" d="M651.041 537.114V595.051" stroke="#844D40" stroke-miterlimit="10"/>
<path id="Vector_70" d="M607.818 518.538H557.79V595.051H607.818V518.538Z" fill="#B77355"/>
<path id="Vector_71" d="M607.818 483.592H557.79V503.64H607.818V483.592Z" fill="#844D40"/>
<path id="Vector_72" d="M607.818 537.114H557.79" stroke="#844D40" stroke-miterlimit="10"/>
<path id="Vector_73" d="M582.436 537.114V595.051" stroke="#844D40" stroke-miterlimit="10"/>
<path id="Vector_74" d="M539.214 518.538H489.186V595.051H539.214V518.538Z" fill="#B77355"/>
<path id="Vector_75" d="M539.214 483.592H489.186V503.64H539.214V483.592Z" fill="#844D40"/>
<path id="Vector_76" d="M539.213 537.114H489.186" stroke="#844D40" stroke-miterlimit="10"/>
<path id="Vector_77" d="M513.832 537.114V595.051" stroke="#844D40" stroke-miterlimit="10"/>
<path id="Vector_78" d="M470.609 518.538H420.581V595.051H470.609V518.538Z" fill="#B77355"/>
<path id="Vector_79" d="M470.609 483.592H420.581V503.64H470.609V483.592Z" fill="#844D40"/>
<path id="Vector_80" d="M470.609 537.114H420.581" stroke="#844D40" stroke-miterlimit="10"/>
<path id="Vector_81" d="M445.228 537.114V595.051" stroke="#844D40" stroke-miterlimit="10"/>
<path id="Vector_82" d="M402.005 518.538H351.977V595.051H402.005V518.538Z" fill="#B77355"/>
<path id="Vector_83" d="M402.005 483.592H351.977V503.64H402.005V483.592Z" fill="#844D40"/>
<path id="Vector_84" d="M402.005 537.114H351.977" stroke="#844D40" stroke-miterlimit="10"/>
<path id="Vector_85" d="M376.623 537.114V595.051" stroke="#844D40" stroke-miterlimit="10"/>
<path id="Vector_86" d="M333.401 518.538H283.373V595.051H333.401V518.538Z" fill="#B77355"/>
<path id="Vector_87" d="M333.401 483.592H283.373V503.64H333.401V483.592Z" fill="#844D40"/>
<path id="Vector_88" d="M333.4 537.114H283.373" stroke="#844D40" stroke-miterlimit="10"/>
<path id="Vector_89" d="M308.019 537.114V595.051" stroke="#844D40" stroke-miterlimit="10"/>
<path id="Vector_90" d="M264.796 518.538H214.768V595.051H264.796V518.538Z" fill="#B77355"/>
<path id="Vector_91" d="M264.796 483.592H214.768V503.64H264.796V483.592Z" fill="#844D40"/>
<path id="Vector_92" d="M264.796 537.114H214.768" stroke="#844D40" stroke-miterlimit="10"/>
<path id="Vector_93" d="M239.414 537.114V595.051" stroke="#844D40" stroke-miterlimit="10"/>
<path id="Vector_94" d="M688.193 603.144H204.1V616.387H688.193V603.144Z" fill="#844D40"/>
<path id="Vector_95" d="M641.108 634.043H522.476V728.949H641.108V634.043Z" fill="#B77355"/>
<path id="Vector_96" d="M503.715 634.043H385.083V728.949H503.715V634.043Z" fill="#B77355"/>
<path id="Vector_97" d="M366.323 634.043H247.691V728.949H366.323V634.043Z" fill="#B77355"/>
<path id="Vector_98" d="M1204.06 308.126H1085.61V728.949H1204.06V308.126Z" fill="#B77355"/>
<path id="Vector_99" d="M1186.4 324.68H1152.19V375.444H1186.4V324.68Z" fill="#CC835E"/>
<path id="Vector_100" d="M1139.5 324.68H1105.29V375.444H1139.5V324.68Z" fill="#CC835E"/>
<path id="Vector_101" d="M1186.4 393.836H1152.19V444.6H1186.4V393.836Z" fill="#CC835E"/>
<path id="Vector_102" d="M1139.5 393.836H1105.29V444.6H1139.5V393.836Z" fill="#CC835E"/>
<path id="Vector_103" d="M1186.4 462.992H1152.19V513.756H1186.4V462.992Z" fill="#CC835E"/>
<path id="Vector_104" d="M1139.5 462.992H1105.29V513.756H1139.5V462.992Z" fill="#CC835E"/>
<path id="Vector_105" d="M1186.4 532.148H1152.19V582.912H1186.4V532.148Z" fill="#CC835E"/>
<path id="Vector_106" d="M1139.5 532.148H1105.29V582.912H1139.5V532.148Z" fill="#CC835E"/>
<path id="Vector_107" d="M1186.4 601.305H1152.19V652.069H1186.4V601.305Z" fill="#CC835E"/>
<path id="Vector_108" d="M1139.5 601.305H1105.29V652.069H1139.5V601.305Z" fill="#CC835E"/>
<path id="Vector_109" d="M1698.45 471.453H1204.06V393.836H1652.1L1698.45 471.453Z" fill="#CC835E"/>
<path id="Vector_110" d="M1688.16 471.453H1204.06V728.949H1688.16V471.453Z" fill="#AA6950"/>
<path id="Vector_111" d="M1265.86 518.538H1215.83V595.051H1265.86V518.538Z" fill="#B77355"/>
<path id="Vector_112" d="M1265.86 483.592H1215.83V503.64H1265.86V483.592Z" fill="#844D40"/>
<path id="Vector_113" d="M1215.83 537.114H1265.86" stroke="#844D40" stroke-miterlimit="10"/>
<path id="Vector_114" d="M1241.21 537.114V595.051" stroke="#844D40" stroke-miterlimit="10"/>
<path id="Vector_115" d="M1334.46 518.538H1284.44V595.051H1334.46V518.538Z" fill="#B77355"/>
<path id="Vector_116" d="M1334.46 483.592H1284.44V503.64H1334.46V483.592Z" fill="#844D40"/>
<path id="Vector_117" d="M1284.44 537.114H1334.46" stroke="#844D40" stroke-miterlimit="10"/>
<path id="Vector_118" d="M1309.82 537.114V595.051" stroke="#844D40" stroke-miterlimit="10"/>
<path id="Vector_119" d="M1403.07 518.538H1353.04V595.051H1403.07V518.538Z" fill="#B77355"/>
<path id="Vector_120" d="M1403.07 483.592H1353.04V503.64H1403.07V483.592Z" fill="#844D40"/>
<path id="Vector_121" d="M1353.04 537.114H1403.07" stroke="#844D40" stroke-miterlimit="10"/>
<path id="Vector_122" d="M1378.42 537.114V595.051" stroke="#844D40" stroke-miterlimit="10"/>
<path id="Vector_123" d="M1688.16 603.144H1204.06V616.387H1688.16V603.144Z" fill="#844D40"/>
<path id="Vector_124" d="M1369.78 634.043H1251.15V728.949H1369.78V634.043Z" fill="#B77355"/>
<path id="Vector_125" d="M1507.17 634.043H1388.54V728.949H1507.17V634.043Z" fill="#B77355"/>
</g>
<path id="street" d="M1525.93 714.848H-41.053V1035.56H1525.93V714.848Z" fill="#ED996B"/>
</g>
<g id="car">
<path id="shadow" d="M1132.06 867.757H236.287L352.06 850.252H1014.24L1132.06 867.757Z" fill="#351F19"/>
<g id="body">
<path id="Vector_126" d="M326.818 837.056C326.818 837.056 421.21 814.442 498.681 841.749L519.485 747.557L440.684 675.723L326.818 703.723C326.818 703.723 312.151 803.276 312.151 805.165C312.151 807.056 326.818 837.056 326.818 837.056Z" fill="#351F19"/>
<path id="Vector_127" d="M884.783 829.771C884.783 829.771 983.503 799.718 1060.97 827.025L1079.15 741.599L1000.35 669.764L886.484 697.764C886.484 697.764 871.818 797.318 871.818 799.207C871.818 801.099 884.783 829.771 884.783 829.771Z" fill="#351F19"/>
<path id="Vector_128" d="M588.106 656.007H578.436L609.443 534.882H619.113L588.106 656.007Z" fill="#CEC2BA"/>
<path id="Vector_129" d="M550.604 542.115C550.604 542.115 524.551 555.977 759.486 554.477L781.33 620.888L847.484 624.139L811.984 539.462C811.984 539.463 592.225 521.342 550.604 542.115Z" fill="#63321D"/>
<path id="Vector_130" d="M455.901 656.3H369.024L354.903 629.502H455.901V656.3Z" fill="#9E5632"/>
<path id="Vector_131" d="M255.127 736.566H242.027C229.877 736.566 220.027 726.716 220.027 714.566V701.26C220.027 689.11 229.877 679.26 242.027 679.26H255.127V736.566Z" fill="#CEC2BA"/>
<path id="Vector_132" d="M781.33 653.042H719.914V604.51C719.914 583.842 736.669 567.087 757.337 567.087C770.588 567.087 781.33 577.829 781.33 591.08V653.042Z" fill="#814F38"/>
<path id="Vector_133" d="M611.861 646.271C608.696 646.271 606.13 643.705 606.13 640.54V579.588C606.13 576.423 608.696 573.858 611.861 573.858C615.026 573.858 617.591 576.423 617.591 579.588V640.54C617.592 643.705 615.026 646.271 611.861 646.271Z" fill="#824E38"/>
<path id="Vector_134" d="M592.622 665.496H510.286L528.344 609.379C531.387 599.921 540.187 593.509 550.123 593.509H588.021C597.648 593.509 604.887 602.286 603.053 611.738L592.622 665.496Z" fill="#844F3D"/>
<path id="Vector_135" opacity="0.49" d="M1026.62 649.137H504.411L538.063 562.911C548.773 535.469 575.217 517.403 604.675 517.403H766.205C869.02 517.403 965.702 566.312 1026.62 649.137Z" fill="#FDE9CE"/>
<path id="Vector_136" d="M555.439 656.007H545.77L576.776 534.882H586.446L555.439 656.007Z" fill="#CEC2BA"/>
<path id="Vector_137" d="M808.319 656.007H798.649L778.941 534.882H788.611L808.319 656.007Z" fill="#CEC2BA"/>
<path id="Vector_138" d="M788.611 531.548H581.611V547.378H788.611V531.548Z" fill="#CEC2BA"/>
<path id="Vector_139" d="M766.206 517.403H604.676C583.53 517.403 563.94 526.713 550.605 542.115H770.772C777.051 542.115 783.251 542.639 789.329 543.629L802.278 618.875H880.852L896.739 649.137H1026.62C965.702 566.312 869.02 517.403 766.206 517.403Z" fill="#FF9447"/>
<path id="Vector_140" d="M808.319 615.153L797.776 543.955C797.776 543.955 888.015 530.875 984 622.632" stroke="#8C4A2C" stroke-miterlimit="10"/>
<path id="Vector_141" opacity="0.15" d="M891.509 639.176C1017.82 660.723 1053.62 663.723 976.736 595.365C966.243 586.359 955.213 578.059 943.716 570.507C906.053 582.575 839.945 602.692 800.502 608.557L802.277 618.875H880.851L891.509 639.176Z" fill="#231F20"/>
<g id="front-wheel">
<path id="Vector_142" d="M410.474 870.171C458.624 870.171 497.657 831.138 497.657 782.988C497.657 734.838 458.624 695.805 410.474 695.805C362.324 695.805 323.291 734.838 323.291 782.988C323.291 831.138 362.324 870.171 410.474 870.171Z" fill="#513025"/>
<path id="Vector_143" d="M410.474 857.665C451.717 857.665 485.151 824.231 485.151 782.988C485.151 741.745 451.717 708.311 410.474 708.311C369.231 708.311 335.797 741.745 335.797 782.988C335.797 824.231 369.231 857.665 410.474 857.665Z" fill="#351F19"/>
<path id="Vector_144" d="M410.474 713.311C371.992 713.311 340.796 744.506 340.796 782.989C340.796 821.47 371.992 852.666 410.474 852.666C448.955 852.666 480.151 821.471 480.151 782.989C480.151 744.506 448.956 713.311 410.474 713.311ZM415.366 735.364C424.916 736.334 433.632 740.115 440.684 745.86L415.366 771.177V735.364ZM398.664 778.096H362.851C363.82 768.547 367.601 759.83 373.347 752.779L398.664 778.096ZM380.264 745.86C387.316 740.115 396.032 736.334 405.582 735.364V771.177L380.264 745.86ZM398.664 787.88L373.346 813.197C367.601 806.145 363.82 797.429 362.85 787.88H398.664ZM405.582 794.798V830.611C396.032 829.642 387.316 825.861 380.264 820.116L405.582 794.798ZM415.366 794.798L440.684 820.116C433.632 825.861 424.916 829.642 415.366 830.611V794.798ZM422.284 787.88H458.097C457.128 797.43 453.347 806.146 447.601 813.198L422.284 787.88ZM422.284 778.096L447.602 752.779C453.347 759.831 457.128 768.548 458.098 778.096H422.284Z" fill="#E5DDCC"/>
<path id="Vector_145" d="M472.133 784.939C472.133 750.866 444.511 723.245 410.439 723.245C376.367 723.245 348.745 750.866 348.745 784.939C348.745 819.011 376.366 846.632 410.439 846.632C444.512 846.632 472.133 819.012 472.133 784.939ZM373.346 752.778L398.664 778.095H362.851C363.82 768.547 367.601 759.83 373.346 752.778ZM362.851 787.88H398.664L373.346 813.197C367.601 806.146 363.82 797.43 362.851 787.88ZM405.582 830.611C396.032 829.642 387.316 825.861 380.264 820.116L405.582 794.798V830.611ZM405.582 771.178L380.264 745.861C387.316 740.116 396.032 736.335 405.582 735.365V771.178ZM458.098 778.096H422.285L447.603 752.779C453.347 759.83 457.128 768.547 458.098 778.096ZM415.366 735.364C424.916 736.334 433.632 740.115 440.684 745.86L415.366 771.177V735.364ZM415.366 830.611V794.798L440.684 820.116C433.631 825.861 424.916 829.643 415.366 830.611ZM422.284 787.88H458.097C457.128 797.43 453.347 806.146 447.601 813.198L422.284 787.88Z" fill="#F2EADA"/>
<path id="Vector_146" d="M410.474 796.395C417.879 796.395 423.881 790.393 423.881 782.988C423.881 775.584 417.879 769.581 410.474 769.581C403.07 769.581 397.067 775.584 397.067 782.988C397.067 790.393 403.07 796.395 410.474 796.395Z" fill="#825043"/>
<path id="Vector_147" d="M410.474 790.325C414.526 790.325 417.811 787.04 417.811 782.988C417.811 778.936 414.526 775.651 410.474 775.651C406.422 775.651 403.137 778.936 403.137 782.988C403.137 787.04 406.422 790.325 410.474 790.325Z" fill="#513025"/>
<path id="Vector_148" opacity="0.41" d="M323.735 774.14C353.031 756.119 413.108 729.766 491.617 751.04C478.871 718.695 447.346 695.805 410.474 695.805C365.311 695.805 328.17 730.146 323.735 774.14Z" fill="#231F20"/>
<path id="Vector_149" opacity="0.15" d="M410.474 852.665C448.029 852.665 478.629 822.95 480.081 785.751C472.049 789.709 464.269 792.824 456.762 795.217C455.001 801.893 451.838 807.998 447.602 813.198L434.8 800.396C430.51 801.048 426.33 801.482 422.273 801.706L440.684 820.117C433.632 825.862 424.916 829.643 415.366 830.612V801.895C412.014 801.898 408.753 801.764 405.582 801.516V830.612C396.032 829.643 387.316 825.862 380.264 820.117L399.493 800.888C395.406 800.363 391.489 799.652 387.749 798.795L373.346 813.198C368.108 806.768 364.51 798.953 363.18 790.386C353.141 785.73 345.647 780.641 341.06 777.125C340.898 779.06 340.796 781.012 340.796 782.988C340.796 821.47 371.992 852.665 410.474 852.665Z" fill="#231F20"/>
<path id="Vector_150" opacity="0.15" d="M475.385 757.665C475.351 759.717 473.76 840.498 415.365 838.889C348.817 837.056 348.87 785.727 342.936 765.804C341.541 771.301 340.795 777.057 340.795 782.989C340.795 821.47 371.991 852.666 410.473 852.666C448.954 852.666 480.15 821.471 480.15 782.989C480.151 774.051 478.451 765.517 475.385 757.665Z" fill="#231F20"/>
<path id="Vector_151" opacity="0.16" d="M415.366 784.939C418.348 784.939 420.766 782.521 420.766 779.539C420.766 776.557 418.348 774.139 415.366 774.139C412.384 774.139 409.966 776.557 409.966 779.539C409.966 782.521 412.384 784.939 415.366 784.939Z" fill="white"/>
</g>
<g id="rear-wheel">
<path id="Vector_152" d="M970.593 870.171C1018.74 870.171 1057.78 831.138 1057.78 782.988C1057.78 734.838 1018.74 695.805 970.593 695.805C922.443 695.805 883.41 734.838 883.41 782.988C883.41 831.138 922.443 870.171 970.593 870.171Z" fill="#513025"/>
<path id="Vector_153" d="M970.593 857.666C1011.84 857.666 1045.27 824.232 1045.27 782.988C1045.27 741.745 1011.84 708.31 970.593 708.31C929.35 708.31 895.915 741.745 895.915 782.988C895.915 824.232 929.35 857.666 970.593 857.666Z" fill="#351F19"/>
<path id="Vector_154" d="M970.593 713.311C932.112 713.311 900.915 744.506 900.915 782.989C900.915 821.47 932.111 852.666 970.593 852.666C1009.08 852.666 1040.27 821.471 1040.27 782.989C1040.27 744.506 1009.07 713.311 970.593 713.311ZM975.484 735.364C985.034 736.334 993.75 740.115 1000.8 745.86L975.484 771.177V735.364ZM958.783 778.096H922.97C923.939 768.547 927.72 759.83 933.465 752.779L958.783 778.096ZM940.383 745.86C947.436 740.115 956.152 736.334 965.701 735.364V771.177L940.383 745.86ZM958.783 787.88L933.465 813.197C927.72 806.145 923.939 797.429 922.97 787.88H958.783ZM965.701 794.798V830.611C956.151 829.642 947.435 825.861 940.383 820.116L965.701 794.798ZM975.484 794.798L1000.8 820.116C993.749 825.861 985.033 829.642 975.484 830.611V794.798ZM982.403 787.88H1018.22C1017.25 797.43 1013.47 806.146 1007.72 813.198L982.403 787.88ZM982.403 778.096L1007.72 752.779C1013.47 759.831 1017.25 768.548 1018.22 778.096H982.403Z" fill="#E5DDCC"/>
<path id="Vector_155" d="M1032.25 784.939C1032.25 750.866 1004.63 723.245 970.558 723.245C936.486 723.245 908.865 750.866 908.865 784.939C908.865 819.011 936.486 846.632 970.558 846.632C1004.63 846.633 1032.25 819.012 1032.25 784.939ZM933.465 752.778L958.783 778.095H922.97C923.938 768.547 927.72 759.83 933.465 752.778ZM922.97 787.88H958.783L933.465 813.197C927.72 806.146 923.938 797.43 922.97 787.88ZM965.701 830.611C956.151 829.642 947.435 825.861 940.383 820.116L965.701 794.798V830.611ZM965.701 771.178L940.383 745.861C947.436 740.116 956.152 736.335 965.701 735.365V771.178ZM1018.22 778.096H982.404L1007.72 752.779C1013.47 759.83 1017.25 768.547 1018.22 778.096ZM975.484 735.364C985.034 736.334 993.75 740.115 1000.8 745.86L975.484 771.177V735.364ZM975.484 830.611V794.798L1000.8 820.116C993.75 825.861 985.034 829.643 975.484 830.611ZM982.403 787.88H1018.22C1017.25 797.43 1013.47 806.146 1007.72 813.198L982.403 787.88Z" fill="#F2EADA"/>
<path id="Vector_156" d="M970.593 796.395C977.998 796.395 984 790.393 984 782.988C984 775.584 977.998 769.581 970.593 769.581C963.189 769.581 957.186 775.584 957.186 782.988C957.186 790.393 963.189 796.395 970.593 796.395Z" fill="#825043"/>
<path id="Vector_157" d="M970.593 790.325C974.645 790.325 977.93 787.04 977.93 782.988C977.93 778.936 974.645 775.651 970.593 775.651C966.541 775.651 963.256 778.936 963.256 782.988C963.256 787.04 966.541 790.325 970.593 790.325Z" fill="#513025"/>
<path id="Vector_158" opacity="0.41" d="M883.854 774.14C913.15 756.119 973.227 729.766 1051.74 751.04C1038.99 718.695 1007.47 695.805 970.592 695.805C925.43 695.805 888.289 730.146 883.854 774.14Z" fill="#231F20"/>
<path id="Vector_159" opacity="0.15" d="M970.593 852.665C1008.15 852.665 1038.75 822.95 1040.2 785.751C1032.17 789.709 1024.39 792.824 1016.88 795.217C1015.12 801.893 1011.96 807.998 1007.72 813.198L994.918 800.395C990.629 801.047 986.448 801.481 982.392 801.705L1000.8 820.116C993.75 825.861 985.034 829.642 975.485 830.611V801.894C972.133 801.897 968.872 801.763 965.702 801.515V830.611C956.152 829.642 947.436 825.861 940.384 820.116L959.613 800.887C955.525 800.362 951.609 799.651 947.869 798.794L933.466 813.197C928.228 806.767 924.63 798.952 923.3 790.385C913.261 785.729 905.768 780.64 901.181 777.124C901.019 779.059 900.916 781.011 900.916 782.987C900.915 821.47 932.111 852.665 970.593 852.665Z" fill="#231F20"/>
<path id="Vector_160" opacity="0.15" d="M1035.5 757.665C1035.47 759.717 1033.88 840.498 975.484 838.889C908.936 837.056 908.99 785.727 903.055 765.804C901.66 771.301 900.914 777.057 900.914 782.989C900.914 821.47 932.11 852.666 970.592 852.666C1009.07 852.666 1040.27 821.471 1040.27 782.989C1040.27 774.051 1038.57 765.517 1035.5 757.665Z" fill="#231F20"/>
<path id="Vector_161" opacity="0.16" d="M975.485 784.939C978.467 784.939 980.885 782.521 980.885 779.539C980.885 776.557 978.467 774.139 975.485 774.139C972.503 774.139 970.085 776.557 970.085 779.539C970.085 782.521 972.503 784.939 975.485 784.939Z" fill="white"/>
</g>
<path id="Vector_162" d="M1002.63 622.632H504.411L286.605 654.352C245.926 660.276 220.075 701.036 232.057 740.358L252.209 806.501C259.851 831.581 283.351 848.43 309.557 847.617C316.748 847.393 322.463 841.499 322.463 834.304V793.837C322.463 745.175 361.91 705.728 410.572 705.728C459.233 705.728 498.681 745.175 498.681 793.837V841.75L884.784 829.772V793.836C884.784 745.174 924.232 705.727 972.893 705.727C1021.55 705.727 1061 745.174 1061 793.836V824.305L1086.07 823.527C1104.67 822.95 1120.14 809.009 1122.63 790.562L1125.14 772.036C1134.05 706.206 1088.15 639.176 1002.63 622.632Z" fill="#FF9447"/>
<path id="Vector_163" opacity="0.09" d="M1121.41 716.817C1108.8 694.344 1086.5 667.029 1047.98 649.136C1023.99 637.993 969.38 636.791 900.519 640.394C881.253 641.402 862.94 649.162 848.909 662.402C833.864 676.598 818.724 695.941 806.152 722.242C806.152 722.242 804.525 700.958 829.168 667.513C687.338 678.396 524.57 678.193 421.621 679.259C298.795 680.532 248.577 712.627 229.911 730.845C230.397 734.013 231.091 737.189 232.057 740.357L252.209 806.5C259.859 831.609 283.405 848.468 309.647 847.613C316.802 847.38 322.462 841.461 322.462 834.302V794.941C322.462 746.358 361.321 706.088 409.903 705.729C458.871 705.366 498.68 744.952 498.68 793.835V841.748L884.784 829.77V794.94C884.784 746.357 923.643 706.087 972.224 705.728C1021.19 705.365 1061 744.951 1061 793.834V824.303L1086.07 823.525C1104.67 822.948 1120.14 809.007 1122.63 790.56L1125.14 772.034C1127.71 753.067 1126.26 734.352 1121.41 716.817Z" fill="#231F20"/>
<g id="Group" opacity="0.08">
<path id="Vector_164" d="M1061 793.836V824.305L1086.07 823.527C1104.67 822.95 1120.14 809.009 1122.63 790.562L1125.14 772.036C1126.32 763.306 1126.65 754.63 1126.19 746.097C1097.37 734.344 1062.37 727.575 1030.33 727.023C1049.11 743.18 1061 767.117 1061 793.836Z" fill="#231F20"/>
<path id="Vector_165" d="M238.821 762.559L252.209 806.5C259.851 831.58 283.351 848.429 309.557 847.616C316.748 847.392 322.463 841.498 322.463 834.303V793.836C322.463 768.173 333.437 745.077 350.944 728.974C304.172 741.107 263.723 754.098 238.821 762.559Z" fill="#231F20"/>
</g>
<g id="Group_2">
<path id="Vector_166" opacity="0.15" d="M884.784 829.771V793.835C884.784 790.161 885.013 786.542 885.449 782.987H498.016C498.453 786.542 498.681 790.161 498.681 793.835V841.748L884.784 829.771Z" fill="#231F20"/>
<path id="Vector_167" opacity="0.15" d="M1060.34 782.988C1060.77 786.543 1061 790.162 1061 793.836V824.305L1086.07 823.527C1104.67 822.95 1120.14 809.009 1122.63 790.562L1123.66 782.989H1060.34V782.988Z" fill="#231F20"/>
<path id="Vector_168" opacity="0.15" d="M309.557 847.616C316.748 847.392 322.463 841.498 322.463 834.303V793.836C322.463 790.162 322.692 786.543 323.128 782.988H245.045L252.209 806.5C259.851 831.58 283.351 848.429 309.557 847.616Z" fill="#231F20"/>
</g>
<path id="Vector_169" d="M884.879 622.632H504.411V620.902C504.411 618.693 506.202 616.902 508.411 616.902L877.364 615.154C881.509 615.134 884.879 618.488 884.879 622.632Z" fill="#CEC2BA"/>
<g id="Group_3">
<g id="Group_4">
<path id="Vector_170" d="M838.751 591.777L821.139 609.475L823.812 612.135L841.424 594.438L838.751 591.777Z" fill="#9E5632"/>
<path id="Vector_171" d="M836.623 581.27L819.01 598.967L821.683 601.627L839.296 583.93L836.623 581.27Z" fill="#9E5632"/>
<path id="Vector_172" d="M834.494 570.764L816.882 588.461L819.555 591.121L837.167 573.424L834.494 570.764Z" fill="#9E5632"/>
<path id="Vector_173" d="M832.37 560.285L814.759 577.982L817.432 580.642L835.043 562.945L832.37 560.285Z" fill="#9E5632"/>
</g>
</g>
<path id="Vector_174" d="M498.681 818.907V841.749L884.783 829.771V813.198L498.681 818.907Z" fill="#A85433"/>
<path id="Vector_175" d="M572.291 646.271C568.876 646.271 566.108 643.502 566.108 640.087V608.191C566.108 604.776 568.877 602.007 572.291 602.007C580.109 602.007 586.446 608.345 586.446 616.162V632.114C586.446 639.934 580.109 646.271 572.291 646.271Z" fill="#9E5632"/>
<path id="Vector_176" d="M556.812 624.14V791.687" stroke="#8C4A2C" stroke-miterlimit="10"/>
<path id="Vector_177" d="M797.776 624.14L747.076 791.687H556.812" stroke="#8C4A2C" stroke-miterlimit="10"/>
<path id="Vector_178" d="M765.515 656.3H731.847C727.693 656.3 724.326 652.933 724.326 648.779C724.326 644.625 727.693 641.258 731.847 641.258H765.515C769.668 641.258 773.036 644.625 773.036 648.779C773.036 652.933 769.668 656.3 765.515 656.3Z" fill="#CE6B3A"/>
<path id="Vector_179" d="M545.77 791.687H530.56C525.35 791.687 520.953 787.811 520.299 782.642L509.466 697.015C508.684 690.836 513.499 685.373 519.727 685.373H534.972C540.936 685.373 545.77 690.208 545.77 696.172V791.687Z" fill="#C16238"/>
<path id="Vector_180" d="M314.53 734.798H287.833C284.821 734.798 282.379 732.357 282.379 729.344V724.136C282.379 721.123 284.821 718.682 287.833 718.682H314.53C317.542 718.682 319.984 721.123 319.984 724.136V729.344C319.984 732.356 317.542 734.798 314.53 734.798Z" fill="#F9C478"/>
<path id="Vector_181" d="M315.354 847.644H247.778C232.408 847.644 221.94 833.336 227.743 820.262L233.327 807.681C236.274 801.041 243.304 796.702 251.109 796.702H324.951C328.719 796.702 331.773 799.757 331.773 803.524V832.56C331.775 840.891 324.423 847.644 315.354 847.644Z" fill="#A85433"/>
<path id="Vector_182" d="M386.319 624.14H360.266C357.304 624.14 354.903 626.541 354.903 629.502H455.901C432.879 625.933 409.616 624.14 386.319 624.14Z" fill="#CEC2BA"/>
<path id="Vector_183" d="M247.696 791.687H267C276.463 791.687 283.276 782.6 280.623 773.516L275.732 756.771C273.964 750.718 268.415 746.558 262.109 746.558H233.945L247.696 791.687Z" fill="#B76237"/>
<path id="Vector_184" d="M259.431 785.79C263.499 784.549 265.276 778.559 263.401 772.41C261.526 766.261 256.708 762.282 252.64 763.522C248.572 764.763 246.794 770.753 248.669 776.902C250.544 783.051 255.363 787.03 259.431 785.79Z" fill="#7F4126"/>
<path id="Vector_185" d="M879.889 645.086H863.618C859.855 645.086 857.504 649.158 859.385 652.417L866.276 664.351C868.711 668.569 874.797 668.569 877.232 664.351L884.123 652.417C886.003 649.158 883.651 645.086 879.889 645.086Z" fill="#FFBD99"/>
<path id="Vector_186" d="M1110.67 827.025H1060.98V791.686H1127.38C1132.53 791.686 1136.69 795.855 1136.69 800.998C1136.69 815.373 1125.04 827.025 1110.67 827.025Z" fill="#A85433"/>
<path id="Vector_187" opacity="0.16" d="M245.119 718.682C245.119 718.682 298.405 664.639 350.945 667.514C403.486 670.389 409.758 666.639 421.622 667.514C433.486 668.389 434.754 678.995 421.622 679.26C408.49 679.525 297.753 675.974 245.119 718.682Z" fill="white"/>
<path id="Vector_188" opacity="0.16" d="M952.224 638.636C952.224 638.636 1062.58 635.438 1116.03 707.913C1116.03 707.913 1086.96 612.882 952.224 638.636Z" fill="white"/>
<path id="Vector_189" opacity="0.16" d="M501.485 665.496L829.168 667.514C829.168 667.514 518.179 683.755 482.165 678.739C446.151 673.723 501.485 665.496 501.485 665.496Z" fill="white"/>
<path id="Vector_190" opacity="0.16" d="M943.716 576.507C891.66 542.309 830.12 523.403 766.206 523.403H604.676C594.451 523.403 584.598 525.597 575.631 529.588C575.101 533.351 581.514 537.454 611.861 537.548C668.151 537.723 837.281 516.626 943.716 576.507Z" fill="white"/>
</g>
<g id="dusts">
<path id="front-dust" d="M419.432 867.767C419.432 867.767 466.871 868.161 484.517 859.033C502.163 849.906 508.248 810.053 531.371 827.241C531.371 827.241 592.828 813.549 575.79 849.374C575.79 849.374 612.908 868.104 570.922 871.479C528.937 874.854 419.432 867.767 419.432 867.767Z" fill="white"/>
<path id="rear-dust" d="M993.978 860.634C993.978 860.634 1063.55 861.211 1089.43 847.826C1115.3 834.44 1124.23 775.995 1158.14 801.202C1158.14 801.202 1248.27 781.121 1223.28 833.659C1223.28 833.659 1277.71 861.128 1216.14 866.077C1154.57 871.027 993.978 860.634 993.978 860.634Z" fill="white"/>
</g>
</g>
<path id="Vector_191" d="M1334.46 319.718C1467.84 319.718 1575.96 211.597 1575.96 78.223C1575.96 -55.151 1467.84 -163.272 1334.46 -163.272C1201.09 -163.272 1092.97 -55.151 1092.97 78.223C1092.97 211.597 1201.09 319.718 1334.46 319.718Z" fill="#F9DEB7"/>
</g>
</svg>
